HIERARCHY
ROOT Hips
{
	OFFSET 15.569033 85.647537 0.841638
	CHANNELS 6 Xposition Yposition Zposition Zrotation Yrotation Xrotation 
	JOINT Spine
	{
		OFFSET -0.000000 8.814246 -2.080107
		CHANNELS 3 Zrotation Yrotation Xrotation
		JOINT Spine1
		{
			OFFSET -0.000000 8.844141 0.000000
			CHANNELS 3 Zrotation Yrotation Xrotation
			JOINT Spine2
			{
				OFFSET 0.000000 11.682268 0.000000
				CHANNELS 3 Zrotation Yrotation Xrotation
				JOINT Spine3
				{
					OFFSET 0.000000 11.746700 0.000000
					CHANNELS 3 Zrotation Yrotation Xrotation
					JOINT Neck
					{
						OFFSET -0.000000 17.658264 -0.000000
						CHANNELS 3 Zrotation Yrotation Xrotation
						JOINT Neck1
						{
							OFFSET 0.000000 5.101515 0.000000
							CHANNELS 3 Zrotation Yrotation Xrotation
							JOINT Head
							{
								OFFSET 0.000000 5.101515 0.000000
								CHANNELS 3 Zrotation Yrotation Xrotation
								JOINT HeadEnd
								{
									OFFSET 0.000000 11.655085 -0.000000
									CHANNELS 3 Zrotation Yrotation Xrotation
									End Site
									{
										OFFSET 0.000000 0.000000 0.000000
									}
								}
							}
						}
					}
					JOINT RightShoulder
					{
						OFFSET -2.625389 11.175210 -0.000000
						CHANNELS 3 Zrotation Yrotation Xrotation
						JOINT RightArm
						{
							OFFSET -0.000000 10.434715 -0.000000
							CHANNELS 3 Zrotation Yrotation Xrotation
							JOINT RightForeArm
							{
								OFFSET 0.000000 29.628420 0.000000
								CHANNELS 3 Zrotation Yrotation Xrotation
								JOINT RightHand
								{
									OFFSET -0.000000 22.857611 -0.000000
									CHANNELS 3 Zrotation Yrotation Xrotation
									JOINT RightHandThumb1
									{
										OFFSET -2.867323 3.959563 2.944291
										CHANNELS 3 Zrotation Yrotation Xrotation
										JOINT RightHandThumb2
										{
											OFFSET 0.000000 3.350399 0.000000
											CHANNELS 3 Zrotation Yrotation Xrotation
											JOINT RightHandThumb3
											{
												OFFSET 0.000000 3.756509 -0.000000
												CHANNELS 3 Zrotation Yrotation Xrotation
												JOINT RightHandThumb4
												{
													OFFSET 0.000000 3.147345 0.000000
													CHANNELS 3 Zrotation Yrotation Xrotation
													End Site
													{
														OFFSET 0.000000 0.000000 0.000000
													}
												}
											}
										}
									}
									JOINT RightHandIndex1
									{
										OFFSET -0.086752 10.030893 2.345280
										CHANNELS 3 Zrotation Yrotation Xrotation
										JOINT RightHandIndex2
										{
											OFFSET 0.000000 4.061090 0.000000
											CHANNELS 3 Zrotation Yrotation Xrotation
											JOINT RightHandIndex3
											{
												OFFSET 0.000000 3.248873 0.000000
												CHANNELS 3 Zrotation Yrotation Xrotation
												JOINT RightHandIndex4
												{
													OFFSET 0.000000 2.639709 0.000000
													CHANNELS 3 Zrotation Yrotation Xrotation
													End Site
													{
														OFFSET 0.000000 0.000000 0.000000
													}
												}
											}
										}
									}
									JOINT RightHandMiddle1
									{
										OFFSET 0.104102 9.502952 0.006768
										CHANNELS 3 Zrotation Yrotation Xrotation
										JOINT RightHandMiddle2
										{
											OFFSET 0.000000 4.568727 0.000000
											CHANNELS 3 Zrotation Yrotation Xrotation
											JOINT RightHandMiddle3
											{
												OFFSET -0.000000 3.654981 -0.000000
												CHANNELS 3 Zrotation Yrotation Xrotation
												JOINT RightHandMiddle4
												{
													OFFSET 0.000000 2.741236 0.000000
													CHANNELS 3 Zrotation Yrotation Xrotation
													End Site
													{
														OFFSET 0.000000 0.000000 0.000000
													}
												}
											}
										}
									}
									JOINT RightHandRing1
									{
										OFFSET 0.086752 8.921708 -2.267442
										CHANNELS 3 Zrotation Yrotation Xrotation
										JOINT RightHandRing2
										{
											OFFSET -0.000000 4.061090 0.000000
											CHANNELS 3 Zrotation Yrotation Xrotation
											JOINT RightHandRing3
											{
												OFFSET -0.000000 3.654981 -0.000000
												CHANNELS 3 Zrotation Yrotation Xrotation
												JOINT RightHandRing4
												{
													OFFSET 0.000000 2.741236 0.000000
													CHANNELS 3 Zrotation Yrotation Xrotation
													End Site
													{
														OFFSET 0.000000 0.000000 0.000000
													}
												}
											}
										}
									}
									JOINT RightHandPinky1
									{
										OFFSET -0.173504 7.976997 -4.467199
										CHANNELS 3 Zrotation Yrotation Xrotation
										JOINT RightHandPinky2
										{
											OFFSET 0.000000 3.350399 0.000000
											CHANNELS 3 Zrotation Yrotation Xrotation
											JOINT RightHandPinky3
											{
												OFFSET 0.000000 2.842763 0.000000
												CHANNELS 3 Zrotation Yrotation Xrotation
												JOINT RightHandPinky4
												{
													OFFSET 0.000000 2.639709 0.000000
													CHANNELS 3 Zrotation Yrotation Xrotation
													End Site
													{
														OFFSET 0.000000 0.000000 0.000000
													}
												}
											}
										}
									}
									JOINT RightForeArmEnd
									{
										OFFSET 0.000000 0.000000 0.000000
										CHANNELS 3 Zrotation Yrotation Xrotation
										End Site
										{
											OFFSET 0.000000 0.000000 0.000000
										}
									}
								}
								JOINT RightArmEnd
								{
									OFFSET 0.000000 0.000000 0.000000
									CHANNELS 3 Zrotation Yrotation Xrotation
									End Site
									{
										OFFSET 0.000000 0.000000 0.000000
									}
								}
							}
						}
					}
					JOINT LeftShoulder
					{
						OFFSET 2.625389 11.175210 -0.000000
						CHANNELS 3 Zrotation Yrotation Xrotation
						JOINT LeftArm
						{
							OFFSET 0.000000 10.813635 0.000000
							CHANNELS 3 Zrotation Yrotation Xrotation
							JOINT LeftForeArm
							{
								OFFSET 0.000000 28.724781 -0.000000
								CHANNELS 3 Zrotation Yrotation Xrotation
								JOINT LeftHand
								{
									OFFSET 0.644384 25.716167 -0.328871
									CHANNELS 3 Zrotation Yrotation Xrotation
									JOINT LeftHandThumb1
									{
										OFFSET 2.867323 3.959563 2.944291
										CHANNELS 3 Zrotation Yrotation Xrotation
										JOINT LeftHandThumb2
										{
											OFFSET -0.000000 3.350399 -0.000000
											CHANNELS 3 Zrotation Yrotation Xrotation
											JOINT LeftHandThumb3
											{
												OFFSET 0.000000 3.756509 -0.000000
												CHANNELS 3 Zrotation Yrotation Xrotation
												JOINT LeftHandThumb4
												{
													OFFSET 0.000000 3.100000 -0.000000
													CHANNELS 3 Zrotation Yrotation Xrotation
													End Site
													{
														OFFSET 0.000000 0.000000 0.000000
													}
												}
											}
										}
									}
									JOINT LeftHandIndex1
									{
										OFFSET 0.086752 10.030893 2.345280
										CHANNELS 3 Zrotation Yrotation Xrotation
										JOINT LeftHandIndex2
										{
											OFFSET -0.000000 4.061090 0.000000
											CHANNELS 3 Zrotation Yrotation Xrotation
											JOINT LeftHandIndex3
											{
												OFFSET -0.000000 3.248873 0.000000
												CHANNELS 3 Zrotation Yrotation Xrotation
												JOINT LeftHandIndex4
												{
													OFFSET 0.000000 2.639709 -0.000000
													CHANNELS 3 Zrotation Yrotation Xrotation
													End Site
													{
														OFFSET 0.000000 0.000000 0.000000
													}
												}
											}
										}
									}
									JOINT LeftHandMiddle1
									{
										OFFSET -0.104102 9.502952 0.006768
										CHANNELS 3 Zrotation Yrotation Xrotation
										JOINT LeftHandMiddle2
										{
											OFFSET -0.000000 4.568727 0.000000
											CHANNELS 3 Zrotation Yrotation Xrotation
											JOINT LeftHandMiddle3
											{
												OFFSET 0.000000 3.654981 -0.000000
												CHANNELS 3 Zrotation Yrotation Xrotation
												JOINT LeftHandMiddle4
												{
													OFFSET -0.000000 2.741236 0.000000
													CHANNELS 3 Zrotation Yrotation Xrotation
													End Site
													{
														OFFSET 0.000000 0.000000 0.000000
													}
												}
											}
										}
									}
									JOINT LeftHandRing1
									{
										OFFSET -0.086752 8.921708 -2.267442
										CHANNELS 3 Zrotation Yrotation Xrotation
										JOINT LeftHandRing2
										{
											OFFSET -0.000000 4.061090 0.000000
											CHANNELS 3 Zrotation Yrotation Xrotation
											JOINT LeftHandRing3
											{
												OFFSET 0.000000 3.654981 -0.000000
												CHANNELS 3 Zrotation Yrotation Xrotation
												JOINT LeftHandRing4
												{
													OFFSET 0.000000 2.741236 -0.000000
													CHANNELS 3 Zrotation Yrotation Xrotation
													End Site
													{
														OFFSET 0.000000 0.000000 0.000000
													}
												}
											}
										}
									}
									JOINT LeftHandPinky1
									{
										OFFSET 0.173504 7.976997 -4.467199
										CHANNELS 3 Zrotation Yrotation Xrotation
										JOINT LeftHandPinky2
										{
											OFFSET 0.000000 3.350399 0.000000
											CHANNELS 3 Zrotation Yrotation Xrotation
											JOINT LeftHandPinky3
											{
												OFFSET -0.000000 2.842763 0.000000
												CHANNELS 3 Zrotation Yrotation Xrotation
												JOINT LeftHandPinky4
												{
													OFFSET 0.000000 2.639709 -0.000000
													CHANNELS 3 Zrotation Yrotation Xrotation
													End Site
													{
														OFFSET 0.000000 0.000000 0.000000
													}
												}
											}
										}
									}
									JOINT LeftForeArmEnd
									{
										OFFSET 0.000000 0.000000 0.000000
										CHANNELS 3 Zrotation Yrotation Xrotation
										End Site
										{
											OFFSET 0.000000 0.000000 0.000000
										}
									}
								}
								JOINT LeftArmEnd
								{
									OFFSET 0.000000 0.000000 0.000000
									CHANNELS 3 Zrotation Yrotation Xrotation
									End Site
									{
										OFFSET 0.000000 0.000000 0.000000
									}
								}
							}
						}
					}
				}
			}
		}
	}
	JOINT RightUpLeg
	{
		OFFSET -11.289943 0.000000 -0.000000
		CHANNELS 3 Zrotation Yrotation Xrotation
		JOINT RightLeg
		{
			OFFSET 0.000000 -38.200325 0.000000
			CHANNELS 3 Zrotation Yrotation Xrotation
			JOINT RightFoot
			{
				OFFSET -0.000000 -39.900856 0.000000
				CHANNELS 3 Zrotation Yrotation Xrotation
				JOINT RightToeBase
				{
					OFFSET -0.000000 -0.000000 15.261641
					CHANNELS 3 Zrotation Yrotation Xrotation
					JOINT RightToeBaseEnd
					{
						OFFSET -0.000000 0.000000 7.370709
						CHANNELS 3 Zrotation Yrotation Xrotation
						End Site
						{
							OFFSET 0.000000 0.000000 0.000000
						}
					}
				}
				JOINT RightLegEnd
				{
					OFFSET 0.000000 0.000000 0.000000
					CHANNELS 3 Zrotation Yrotation Xrotation
					End Site
					{
						OFFSET 0.000000 0.000000 0.000000
					}
				}
			}
			JOINT RightUpLegEnd
			{
				OFFSET 0.000000 0.000000 0.000000
				CHANNELS 3 Zrotation Yrotation Xrotation
				End Site
				{
					OFFSET 0.000000 0.000000 0.000000
				}
			}
		}
	}
	JOINT LeftUpLeg
	{
		OFFSET 11.315661 0.000000 -0.000000
		CHANNELS 3 Zrotation Yrotation Xrotation
		JOINT LeftLeg
		{
			OFFSET -0.000000 -38.200325 0.000000
			CHANNELS 3 Zrotation Yrotation Xrotation
			JOINT LeftFoot
			{
				OFFSET 0.000000 -39.900856 0.000000
				CHANNELS 3 Zrotation Yrotation Xrotation
				JOINT LeftToeBase
				{
					OFFSET -0.000000 -0.000000 15.261641
					CHANNELS 3 Zrotation Yrotation Xrotation
					JOINT LeftToeBaseEnd
					{
						OFFSET 0.000000 -0.000000 7.539996
						CHANNELS 3 Zrotation Yrotation Xrotation
						End Site
						{
							OFFSET 0.000000 0.000000 0.000000
						}
					}
				}
				JOINT LeftLegEnd
				{
					OFFSET 0.000000 0.000000 0.000000
					CHANNELS 3 Zrotation Yrotation Xrotation
					End Site
					{
						OFFSET 0.000000 0.000000 0.000000
					}
				}
			}
			JOINT LeftUpLegEnd
			{
				OFFSET 0.000000 0.000000 0.000000
				CHANNELS 3 Zrotation Yrotation Xrotation
				End Site
				{
					OFFSET 0.000000 0.000000 0.000000
				}
			}
		}
	}
}
MOTION
Frames: 5
Frame Time: 0.016667
15.569033 85.647537 0.841638 -6.390013 -40.198502 -11.942135 -1.875104 0.417775 5.701020 -5.421899 0.939557 10.757375 1.134929 -10.389630 6.828669 -2.650711 -4.984176 2.072686 32.950275 -37.754944 -5.808990 -5.414991 -33.304096 -12.771925 6.545044 3.218841 -15.349118 -0.000000 0.000000 -0.000000 96.900398 -0.493857 3.658406 60.591614 -36.864944 6.980395 -2.231387 15.340071 97.878799 -16.570644 -11.916635 6.439627 14.836097 -2.065511 38.086761 -0.000000 -0.000000 -36.000000 0.000000 0.000000 -25.000000 0.000000 0.000000 -0.000000 34.840202 -0.000000 -9.387926 24.388142 0.000000 0.000000 24.388142 0.000000 -0.000000 -0.000000 0.000000 -0.000000 34.917896 -0.000000 -10.708799 24.442526 0.000000 0.000000 24.442526 0.000000 -0.000000 0.000000 0.000000 0.000000 36.442207 -0.000000 -12.495168 25.509546 0.000000 -0.000000 25.509546 0.000000 0.000000 0.000000 0.000000 0.000000 36.100765 -0.000000 -15.489446 25.270535 0.000000 0.000000 25.270535 0.000000 -0.000000 0.000000 -0.000000 0.000000 0.000000 0.000000 0.000000 -0.000000 0.000000 -0.000000 -86.035202 -0.720066 9.652350 -80.540764 39.741444 -20.808611 -2.328873 -18.582823 95.660240 -0.581438 -0.351142 -0.630435 -13.035290 2.000802 38.833199 -0.000000 -0.000000 -31.680000 0.000000 -0.000000 -22.000000 -0.000000 -0.000000 0.000000 -31.966120 -0.000000 -12.123269 -22.376284 -0.000000 -0.000000 -22.376284 0.000000 -0.000000 0.000000 -0.000000 0.000000 -31.910250 0.000000 -13.150365 -22.337173 -0.000000 0.000000 -22.337173 0.000000 0.000000 0.000000 -0.000000 0.000000 -32.805309 0.000000 -13.484863 -22.963717 -0.000000 -0.000000 -22.963717 0.000000 -0.000000 -0.000000 -0.000000 0.000000 -31.784065 -0.000000 -14.011676 -22.248846 -0.000000 -0.000000 -22.248846 0.000000 0.000000 0.000000 0.000000 -0.000000 -0.000000 -0.000000 -0.000000 -0.000000 -0.000000 -0.000000 1.384768 10.004834 -10.673489 -0.221819 -0.480671 24.773066 -1.007316 -10.273894 40.965500 0.255156 -0.595624 -30.506649 -0.000000 0.000000 -0.000000 -0.000000 0.000000 0.000000 0.000000 0.000000 0.000000 2.593491 22.360893 9.557590 0.109257 0.200137 28.630728 0.304011 33.703678 5.003436 0.200285 1.633340 -29.044554 -0.000000 -0.000000 0.000000 0.000000 0.000000 -0.000000 0.000000 -0.000000 -0.000000 
15.479781 85.623619 0.905519 -6.717531 -41.169441 -11.640269 -1.815555 0.424599 5.610744 -5.494555 0.960801 10.689586 1.207563 -10.468370 6.777057 -2.652173 -5.012379 2.074564 33.028908 -37.833374 -6.013655 -5.363339 -33.330109 -12.902460 6.512257 3.218243 -15.415518 -0.000000 0.000000 0.000000 96.929512 -0.499675 3.690484 60.436947 -36.772755 7.106291 -2.246060 15.347098 97.901047 -16.590048 -11.875648 6.228679 14.836097 -2.065511 38.086761 0.000000 0.000000 -36.000000 -0.000000 -0.000000 -25.000000 -0.000000 0.000000 -0.000000 34.825832 -0.000000 -9.297851 24.378084 -0.000000 -0.000000 24.378084 0.000000 0.000000 -0.000000 -0.000000 0.000000 34.907307 -0.000000 -10.613445 24.435114 0.000000 0.000000 24.435114 0.000000 0.000000 -0.000000 0.000000 0.000000 36.434387 -0.000000 -12.377738 25.504072 0.000000 0.000000 25.504072 -0.000000 -0.000000 -0.000000 0.000000 0.000000 36.091511 -0.000000 -15.333318 25.264057 0.000000 -0.000000 25.264057 -0.000000 -0.000000 0.000000 0.000000 0.000000 0.000000 0.000000 0.000000 0.000000 0.000000 0.000000 -86.082245 -0.714916 9.696472 -80.476486 39.963104 -20.693308 -2.296749 -18.503677 95.705139 -0.885951 -0.477271 -0.358737 -13.035290 2.000802 38.833199 0.000000 0.000000 -31.680000 -0.000000 0.000000 -22.000000 -0.000000 -0.000000 -0.000000 -31.916506 0.000000 -12.059787 -22.341553 0.000000 0.000000 -22.341553 -0.000000 -0.000000 0.000000 -0.000000 0.000000 -31.848120 0.000000 -13.125477 -22.293684 -0.000000 0.000000 -22.293684 0.000000 -0.000000 0.000000 -0.000000 0.000000 -32.709732 0.000000 -13.529498 -22.896811 -0.000000 -0.000000 -22.896811 0.000000 0.000000 -0.000000 -0.000000 -0.000000 -31.660021 0.000000 -14.130508 -22.162016 -0.000000 0.000000 -22.162016 -0.000000 -0.000000 -0.000000 -0.000000 -0.000000 0.000000 -0.000000 -0.000000 -0.000000 0.000000 0.000000 1.866246 10.247943 -10.738048 -0.206306 -0.450119 24.623926 -1.243256 -9.893919 41.183071 0.238077 -0.582150 -30.540180 -0.000000 -0.000000 -0.000000 0.000000 0.000000 0.000000 0.000000 -0.000000 0.000000 2.832038 22.621717 9.511086 0.115370 0.209075 28.899313 -0.184606 34.310268 4.650104 0.216489 1.633217 -29.078314 -0.000000 -0.000000 0.000000 0.000000 -0.000000 -0.000000 0.000000 0.000000 -0.000000 
15.380765 85.600258 0.963523 -7.113363 -42.061718 -11.291370 -1.740840 0.431535 5.535920 -5.558995 0.980211 10.613288 1.321725 -10.536490 6.737499 -2.640340 -5.034959 2.081149 33.099182 -37.880665 -6.211894 -5.324066 -33.366066 -13.038440 6.488790 3.215360 -15.459378 -0.000000 0.000000 0.000000 96.963280 -0.501871 3.690212 60.279514 -36.693272 7.235353 -2.262505 15.372787 97.918983 -16.653736 -12.023790 6.081100 14.836097 -2.065511 38.086761 0.000000 0.000000 -36.000000 0.000000 -0.000000 -25.000000 0.000000 -0.000000 0.000000 34.744095 -0.000000 -9.228819 24.320866 -0.000000 0.000000 24.320866 0.000000 -0.000000 0.000000 -0.000000 -0.000000 34.799950 -0.000000 -10.528885 24.359964 -0.000000 0.000000 24.359964 0.000000 -0.000000 0.000000 0.000000 0.000000 36.253109 -0.000000 -12.264689 25.377178 0.000000 0.000000 25.377178 -0.000000 0.000000 0.000000 0.000000 0.000000 35.833862 -0.000000 -15.181730 25.083702 -0.000000 0.000000 25.083702 0.000000 -0.000000 0.000000 -0.000000 0.000000 0.000000 0.000000 0.000000 -0.000000 0.000000 -0.000000 -86.155045 -0.705260 9.740963 -80.370003 40.215328 -20.581789 -2.265611 -18.420866 95.729996 -1.074669 -0.657271 -0.225953 -13.035290 2.000802 38.833199 0.000000 0.000000 -31.680000 -0.000000 -0.000000 -22.000000 0.000000 0.000000 0.000000 -31.939209 0.000000 -11.810210 -22.357447 -0.000000 0.000000 -22.357447 -0.000000 -0.000000 0.000000 0.000000 0.000000 -31.848429 0.000000 -12.909502 -22.293901 -0.000000 -0.000000 -22.293901 0.000000 0.000000 0.000000 0.000000 0.000000 -32.648376 0.000000 -13.352763 -22.853865 -0.000000 -0.000000 -22.853865 -0.000000 -0.000000 0.000000 -0.000000 -0.000000 -31.537401 -0.000000 -13.983098 -22.076181 -0.000000 0.000000 -22.076181 -0.000000 -0.000000 0.000000 -0.000000 -0.000000 0.000000 -0.000000 0.000000 -0.000000 0.000000 -0.000000 2.376135 10.444963 -10.796995 -0.191087 -0.419461 24.491863 -1.462837 -9.515307 41.432083 0.224075 -0.573947 -30.621241 -0.000000 0.000000 -0.000000 0.000000 -0.000000 0.000000 0.000000 -0.000000 0.000000 3.127784 22.854347 9.437696 0.120799 0.211888 29.228264 -0.685118 34.853432 4.260404 0.232769 1.631665 -29.087112 -0.000000 -0.000000 0.000000 0.000000 0.000000 -0.000000 0.000000 0.000000 -0.000000 
15.271732 85.575241 1.020429 -7.579632 -42.855579 -10.910799 -1.659083 0.454258 5.496869 -5.584635 0.983031 10.512086 1.453266 -10.618094 6.727149 -2.613559 -5.058721 2.095380 33.132618 -37.884327 -6.364288 -5.306613 -33.342293 -13.121574 6.490722 3.195876 -15.531345 -0.000000 -0.000000 0.000000 96.973961 -0.498168 3.654222 60.149818 -36.601013 7.362225 0.663412 14.979282 98.709908 -16.930239 -15.032275 6.843945 14.836097 -2.065511 38.086761 0.000000 -0.000000 -36.000000 -0.000000 0.000000 -25.000000 0.000000 0.000000 0.000000 34.666557 -0.000000 -9.114451 24.266590 0.000000 0.000000 24.266590 -0.000000 0.000000 0.000000 0.000000 -0.000000 34.732918 -0.000000 -10.411027 24.313042 0.000000 -0.000000 24.313042 -0.000000 0.000000 0.000000 0.000000 0.000000 36.200520 -0.000000 -12.151045 25.340363 0.000000 0.000000 25.340363 -0.000000 0.000000 0.000000 0.000000 -0.000000 35.800934 -0.000000 -15.093641 25.060656 0.000000 -0.000000 25.060656 0.000000 -0.000000 -0.000000 0.000000 0.000000 0.000000 0.000000 0.000000 0.000000 0.000000 -0.000000 -86.229691 -0.695816 9.795075 -80.253731 40.451645 -20.472071 -2.235727 -18.332199 95.733513 -1.173503 -0.745036 -0.281162 -13.035290 2.000802 38.833199 0.000000 0.000000 -31.680000 -0.000000 0.000000 -22.000000 0.000000 -0.000000 -0.000000 -32.004333 0.000000 -11.413172 -22.403034 -0.000000 -0.000000 -22.403034 -0.000000 0.000000 -0.000000 0.000000 0.000000 -31.891897 0.000000 -12.531705 -22.324327 0.000000 -0.000000 -22.324327 -0.000000 0.000000 0.000000 0.000000 -0.000000 -32.626831 0.000000 -12.960844 -22.838783 -0.000000 -0.000000 -22.838783 -0.000000 0.000000 0.000000 -0.000000 -0.000000 -31.448383 0.000000 -13.554339 -22.013868 0.000000 0.000000 -22.013868 -0.000000 -0.000000 0.000000 -0.000000 -0.000000 0.000000 -0.000000 -0.000000 -0.000000 -0.000000 0.000000 2.900711 10.582894 -10.829252 -0.176782 -0.390072 24.380796 -1.647056 -9.086619 41.682903 0.211958 -0.569531 -30.739571 -0.000000 -0.000000 -0.000000 0.000000 -0.000000 0.000000 0.000000 0.000000 0.000000 3.516810 23.107727 9.357197 0.123733 0.212106 29.640985 -1.184105 35.263241 3.830767 0.248301 1.630627 -29.073418 -0.000000 -0.000000 0.000000 0.000000 0.000000 0.000000 0.000000 -0.000000 -0.000000 
15.154588 85.548080 1.074459 -8.108207 -43.555386 -10.507122 -1.568074 0.481037 5.485225 -5.580709 0.981768 10.386505 1.585126 -10.707444 6.763989 -2.568994 -5.082235 2.126996 33.130032 -37.868259 -6.484365 -5.280547 -33.303028 -13.190863 6.496233 3.175283 -15.610205 -0.000000 -0.000000 0.000000 96.939384 -0.491400 3.617041 60.096989 -36.442673 7.486952 0.674154 14.979942 98.739456 -16.851988 -15.117768 6.837717 14.836097 -2.065511 38.086761 0.000000 -0.000000 -36.000000 0.000000 0.000000 -25.000000 0.000000 -0.000000 0.000000 34.575058 0.000000 -9.231058 24.202539 0.000000 0.000000 24.202539 0.000000 0.000000 0.000000 0.000000 -0.000000 34.648922 0.000000 -10.504330 24.254246 -0.000000 -0.000000 24.254246 0.000000 0.000000 0.000000 0.000000 0.000000 36.137180 0.000000 -12.221210 25.296026 0.000000 0.000000 25.296026 0.000000 0.000000 0.000000 -0.000000 0.000000 35.759632 0.000000 -15.138796 25.031742 -0.000000 -0.000000 25.031742 0.000000 -0.000000 0.000000 0.000000 0.000000 0.000000 0.000000 0.000000 0.000000 0.000000 -0.000000 -86.285789 -0.690128 9.859090 -80.151756 40.667324 -20.360149 -2.213280 -18.277618 95.718246 -1.233220 -0.758212 -0.385208 -13.335325 2.014824 38.706818 0.000000 0.000000 -32.400002 -0.000000 0.000000 -22.500000 0.000000 -0.000000 0.000000 -32.292957 -0.000000 -11.263622 -22.605070 0.000000 -0.000000 -22.605070 0.000000 0.000000 0.000000 0.000000 0.000000 -32.138477 -0.000000 -12.363520 -22.496935 -0.000000 -0.000000 -22.496935 0.000000 -0.000000 0.000000 0.000000 0.000000 -32.784008 -0.000000 -12.755859 -22.948807 -0.000000 -0.000000 -22.948807 0.000000 0.000000 0.000000 -0.000000 -0.000000 -31.505911 -0.000000 -13.303960 -22.054138 -0.000000 -0.000000 -22.054138 -0.000000 -0.000000 -0.000000 -0.000000 -0.000000 -0.000000 -0.000000 -0.000000 -0.000000 -0.000000 0.000000 3.427837 10.682888 -10.825031 -0.163426 -0.362354 24.276567 -1.784427 -8.582904 41.920925 0.200236 -0.566770 -30.880262 -0.000000 -0.000000 -0.000000 0.000000 0.000000 -0.000000 0.000000 -0.000000 0.000000 3.993717 23.382267 9.271251 0.125035 0.210837 30.138519 -1.679097 35.545639 3.371031 0.262502 1.630603 -29.053476 -0.000000 -0.000000 0.000000 0.000000 0.000000 -0.000000 0.000000 -0.000000 -0.000000 
